<?xml version="1.0" encoding="iso-8859-1"?>
<svg xmlns="http://www.w3.org/2000/svg" xmlns:xlink="http://www.w3.org/1999/xlink" version="1.1" viewBox="0 0 364.904 364.904" enable-background="new 0 0 364.904 364.904" width="512px" height="512px">
  <path d="m361.762,301.3l-32.75-23.391c1.496-1.371 2.439-3.335 2.439-5.524 0-0.628-0.077-1.239-0.223-1.822l-15.704-91.698c-0.017-0.101-0.044-0.199-0.065-0.299l-12.257-73.138 58.56-41.824c3.37-2.407 4.151-7.091 1.744-10.462-2.406-3.371-7.091-4.154-10.463-1.744l-52.6,37.567-3.52-21.003c-0.605-3.613-3.732-6.26-7.396-6.26h-216.564c-4.143,0-7.5,3.358-7.5,7.5s3.357,7.5 7.5,7.5h210.217l3.681,21.964-103.563,73.965h-1.691l-169.747-121.232c-3.372-2.408-8.056-1.626-10.463,1.744-2.407,3.371-1.626,8.055 1.744,10.462l152.656,109.027h-2.713c-57.355,0-106.013,41.032-115.694,97.563l-.158,.922c-0.307,1.787 0.056,3.605 0.978,5.136l-35.069,25.047c-3.37,2.407-4.151,7.091-1.744,10.462 1.464,2.05 3.77,3.142 6.11,3.142 1.508,0 3.031-0.454 4.353-1.397l47.074-33.62h247.036l47.074,33.62c1.321,0.944 2.845,1.397 4.353,1.397 2.341,0 4.646-1.092 6.11-3.142 2.407-3.371 1.626-8.055-1.745-10.462zm-59.04-107.983c0.051,0.303 0.125,0.596 0.21,0.884l12.105,70.685h-4.261l-108.168-77.254h99.161l.953,5.685zm-13.103-78.187l9.637,57.502h-90.149l80.512-57.502zm-235.789,149.756c11.381-45.216 51.922-77.254 99.255-77.254h9.21l-108.168,77.254h-0.297zm26.106,0l102.516-73.217 102.516,73.217h-205.032z" fill="#DE8496"/>
</svg>
