<?xml version="1.0" encoding="iso-8859-1"?>
<!-- Generator: Adobe Illustrator 16.0.0, SVG Export Plug-In . SVG Version: 6.00 Build 0)  -->
<!DOCTYPE svg PUBLIC "-//W3C//DTD SVG 1.1//EN" "http://www.w3.org/Graphics/SVG/1.1/DTD/svg11.dtd">
<svg xmlns="http://www.w3.org/2000/svg" xmlns:xlink="http://www.w3.org/1999/xlink" version="1.1" id="Capa_1" x="0px" y="0px" width="512px" height="512px" viewBox="0 0 277.726 277.725" style="enable-background:new 0 0 277.726 277.725;" xml:space="preserve">
<g>
	<path d="M276.755,68.284c-1.695-2.431-5.038-3.032-7.484-1.323l-69.067,48.261L149.3,21.948c-2.667-4.88-6.73-7.686-11.146-7.686   c-4.432,0-8.496,2.816-11.151,7.741l-50.04,92.73L8.453,66.956c-2.452-1.693-5.787-1.097-7.488,1.333   c-1.693,2.436-1.1,5.785,1.333,7.483l69.526,48.481L7.385,243.683c-2.604,4.83-2.78,9.821-0.462,13.69   c2.309,3.873,6.777,6.09,12.26,6.09h239.399c5.292,0,9.585-2.105,11.953-5.723c0.314-0.278,0.693-0.463,0.945-0.818   c0.906-1.302,1.111-2.847,0.771-4.29c0.288-2.839-0.283-5.905-1.933-8.929l-64.931-118.983l70.044-48.948   C277.863,74.069,278.456,70.72,276.755,68.284L276.755,68.284z M136.457,27.108c0.829-1.536,1.574-2.047,1.625-2.105   c0.19,0.058,0.939,0.559,1.779,2.1l51.476,94.319l-52.331,36.57l-53.169-37.066L136.457,27.108z M129.614,164.552L21.542,240.071   L80.698,130.44L129.614,164.552z M139.012,171.104l117.035,81.608H22.219L139.012,171.104z M255.704,239.367l-107.308-74.824   l48.121-33.63L255.704,239.367z" fill="#DE8496"/>
</g>
<g>
</g>
<g>
</g>
<g>
</g>
<g>
</g>
<g>
</g>
<g>
</g>
<g>
</g>
<g>
</g>
<g>
</g>
<g>
</g>
<g>
</g>
<g>
</g>
<g>
</g>
<g>
</g>
<g>
</g>
</svg>
